<?xml version="1.0" encoding="UTF-8"?>
<svg id="Capa_1" data-name="Capa 1" xmlns="http://www.w3.org/2000/svg" viewBox="0 0 404.64 404.64">
  <path d="M211.9,401h-19.16c-102.4,0-185.42-83.01-185.42-185.42v-19.16C7.32,94.01,90.34,11,192.74,11h19.16c102.4,0,185.42,83.01,185.42,185.42v19.16c0,102.4-83.02,185.42-185.42,185.42" style="fill: #fff;"/>
  <path d="M320.09,156.73c.32,0,.63-.13.84-.37l11.08-12.09c3.53-3.85.81-10.07-4.4-10.07h-57.53c-1.85,0-3.59.85-4.72,2.32l-14.23,18.37c-.58.75-.05,1.84.9,1.84h68.06Z" style="fill: #00be69;"/>
  <path d="M279.02,209.96c-2.1-2.29-2.1-5.82,0-8.1l34.61-37.62c.84-.91.19-2.39-1.05-2.39h-66.21c-.44,0-.85.2-1.12.55l-5.86,7.55c-2.4,3.09-7.06,3.09-9.45,0l-5.29-6.81-20.7-26.63c-1.13-1.46-2.88-2.31-4.72-2.31h-57.53c-5.21,0-7.94,6.2-4.41,10.04l53.01,57.61c2.11,2.29,2.11,5.81,0,8.1l-53.01,57.62c-3.53,3.84-.81,10.04,4.41,10.04h57.53c1.85,0,3.59-.85,4.72-2.31l25.99-33.44c2.4-3.08,7.06-3.08,9.45,0l25.99,33.44c1.13,1.46,2.88,2.31,4.72,2.31h57.53c5.21,0,7.93-6.2,4.4-10.04l-53-57.62Z" style="fill: #004678;"/>
  <path d="M151.31,134.12c42.87,0,71.11,14.9,78.44,51.36,1.03,5.14-2.32,10.08-6.8,10.08h-35.52c-2.37,0-4.07-1.2-5.96-3.63-6.17-7.94-15.12-11.44-30.16-11.44-21.05,0-33.05,5.1-33.05,25.51s12,25.5,33.05,25.5c15.04,0,23.42-3.98,30.16-11.44,2.2-2.43,3.59-3.63,5.96-3.63h35.52c4.48,0,7.83,4.94,6.8,10.08-7.33,36.46-35.57,51.36-78.44,51.36-50.17,0-80.28-20.4-80.28-71.88s30.11-71.88,80.28-71.88" style="fill: #004678;"/>
</svg>